<svg height="35vw" viewBox="0 0 312.5 211.83246657671296" preserveAspectRatio="xMidYMid meet" class="css-g5ufxp" id="ddabbbdc"><defs id="SvgjsDefs1001"></defs><g id="SvgjsG1007" featurekey="rootContainer" transform="matrix(2.6916451688813487,0,0,2.6916451688813487,0,0)" fill="#002347"><path xmlns="http://www.w3.org/2000/svg" d="M116.1 78.7H0V0h116.1zM2 76.7h112.1V2H2z"></path></g><g id="SvgjsG1008" featurekey="symbolFeature-0" transform="matrix(0.8430913198307346,0,0,0.8430913198307346,114.9414520810156,33.01405291565705)" fill="#002347"><path xmlns="http://www.w3.org/2000/svg" d="M92,57c0-0.3-0.2-0.6-0.6-0.8c0,0-21.4-10.5-29.4-14.2V41h0.9c0.3,0,0.4-3.8,0.4-5.1c0-1.6,0.1-2.9-0.7-2.9h-3.8  c-0.7,0-0.7,1.6-0.7,3.3c0,0.7,0.2,2,0.2,3.2c-1.8-1.5-4.4-3.4-4.4-3.7c0-3.9,0-6.6,0-6.6c0-12-2.8-22.1-4.8-22.1  c-2,0-4.8,10.1-4.8,22.1l0,6.6c0,0-2.6,2.2-4.6,3.8c0.1-1.2,0.1-2.6,0.1-3.3c0-1.6,0.1-3.3-0.7-3.3h-3.8c-0.7,0-0.7,1.2-0.7,2.9  c0,1.3,0.1,5.1,0.4,5.1H36v1.1C28,45.7,6.6,56.3,6.6,56.3C6.2,56.5,6,56.8,6,57c0,0.3,0,3,0,3l20-4.4v0.3c0,0.8,0.3,2.1,0.5,2.1  s0.5-1.3,0.5-2.1v-0.5l6-1.6v0.4c0,0.8,0.3,2.1,0.5,2.1s0.5-1.3,0.5-2.1v-0.6l2.7-0.6H38v0.7c0,0.8,0.3,2.1,0.5,2.1s0.5-1.3,0.5-2.1  V53h6v11c0,0,0,0,0,0c0,5.1,0.7,11.7,1.8,17l-15.3,8.2c-0.2,0.1-0.6,0.2-0.6,0.5c0,0.4,0,2.8,0,2.8L48.4,89c0.3,0.9,0.5,1.4,0.6,1.4  c0.1,0,0.4-0.5,0.7-1.4L67,92.5c0,0,0-2.4,0-2.8c0-0.3-0.2-0.4-0.4-0.5l-15-8.2c1.1-5.3,2.2-12,2.2-17.1c0-0.1,0-4.9,0-10.9H59v0.7  c0,0.8,0.3,2.1,0.5,2.1s0.5-1.3,0.5-2.1V53h1.3l2.7,0.6v0.6c0,0.8,0.3,2.1,0.5,2.1s0.5-1.3,0.5-2.1v-0.4l6,1.6v0.5  c0,0.8,0.3,2.1,0.5,2.1s0.5-1.3,0.5-2.1v-0.3L92,60C92,60,92,57.3,92,57z"></path></g><g id="SvgjsG1009" featurekey="nameFeature-0" transform="matrix(1.1489696598446009,0,0,1.1489696598446009,54.66719591777055,117.85578757350463)" fill="#002347"><path d="M10.64 18.76 c2.7733 0 4.94 0.56004 6.5 1.68 s2.4333 2.76 2.62 4.92 l-5.4 0 c-0.08 -0.98668 -0.44 -1.7 -1.08 -2.14 s-1.5733 -0.66 -2.8 -0.66 c-1.0667 0 -1.86 0.16 -2.38 0.48 s-0.78 0.8 -0.78 1.44 c0 0.48 0.17332 0.88 0.52 1.2 s0.87336 0.6 1.58 0.84 s1.4867 0.44 2.34 0.6 c2.5867 0.50668 4.4132 1.0267 5.48 1.56 s1.8467 1.1733 2.34 1.92 s0.74 1.6667 0.74 2.76 c0 2.32 -0.84668 4.1 -2.54 5.34 s-3.9933 1.86 -6.9 1.86 c-3.04 0 -5.4068 -0.65332 -7.1 -1.96 s-2.5666 -3.08 -2.62 -5.32 l5.4 0 c0 1.0667 0.41332 1.9134 1.24 2.54 s1.8667 0.94 3.12 0.94 c1.0667 0 1.9534 -0.23332 2.66 -0.7 s1.06 -1.1134 1.06 -1.94 c0 -0.53332 -0.22 -0.97332 -0.66 -1.32 s-1.06 -0.65336 -1.86 -0.92004 s-2.04 -0.57336 -3.72 -0.92004 c-1.3333 -0.26668 -2.52 -0.62668 -3.56 -1.08 s-1.8333 -1.0466 -2.38 -1.78 s-0.82 -1.6333 -0.82 -2.7 c0 -1.36 0.32668 -2.5467 0.98 -3.56 s1.6533 -1.78 3 -2.3 s3.02 -0.78 5.02 -0.78 z M30.747 11.440000000000001 l0 15.32 l7.16 -7.44 l6.72 0 l-7.8 7.6 l8.68 13.08 l-6.88 0 l-5.68 -9.24 l-2.2 2.12 l0 7.12 l-5.68 0 l0 -28.56 l5.68 0 z M52.09400000000001 19.32 l4.68 14.16 l0.08 0 l4.52 -14.16 l5.88 0 l-8.64 23.28 c-0.61332 1.6267 -1.46 2.8134 -2.54 3.56 s-2.58 1.12 -4.5 1.12 c-0.82668 0 -2.0134 -0.06668 -3.56 -0.2 l0 -4.68 c1.0133 0.13332 2.0133 0.2 3 0.2 c0.8 0 1.42 -0.24668 1.86 -0.74 s0.66 -1.1133 0.66 -1.86 c0 -0.42668 -0.08 -0.85336 -0.24 -1.28 l-7.28 -19.4 l6.08 0 z M78.561 18.76 c2.7733 0 4.94 0.56004 6.5 1.68 s2.4333 2.76 2.62 4.92 l-5.4 0 c-0.08 -0.98668 -0.44 -1.7 -1.08 -2.14 s-1.5733 -0.66 -2.8 -0.66 c-1.0667 0 -1.86 0.16 -2.38 0.48 s-0.78 0.8 -0.78 1.44 c0 0.48 0.17332 0.88 0.52 1.2 s0.87336 0.6 1.58 0.84 s1.4867 0.44 2.34 0.6 c2.5867 0.50668 4.4132 1.0267 5.48 1.56 s1.8467 1.1733 2.34 1.92 s0.74 1.6667 0.74 2.76 c0 2.32 -0.84668 4.1 -2.54 5.34 s-3.9933 1.86 -6.9 1.86 c-3.04 0 -5.4068 -0.65332 -7.1 -1.96 s-2.5666 -3.08 -2.62 -5.32 l5.4 0 c0 1.0667 0.41332 1.9134 1.24 2.54 s1.8667 0.94 3.12 0.94 c1.0667 0 1.9534 -0.23332 2.66 -0.7 s1.06 -1.1134 1.06 -1.94 c0 -0.53332 -0.22 -0.97332 -0.66 -1.32 s-1.06 -0.65336 -1.86 -0.92004 s-2.04 -0.57336 -3.72 -0.92004 c-1.3333 -0.26668 -2.52 -0.62668 -3.56 -1.08 s-1.8333 -1.0466 -2.38 -1.78 s-0.82 -1.6333 -0.82 -2.7 c0 -1.36 0.32668 -2.5467 0.98 -3.56 s1.6533 -1.78 3 -2.3 s3.02 -0.78 5.02 -0.78 z M101.988 18.76 c6.0268 0.02668 9.04 1.9866 9.04 5.88 l0 10.96 c0 2.0267 0.24 3.4934 0.72 4.4 l-5.76 0 c-0.21332 -0.64 -0.34664 -1.3067 -0.39996 -2 c-1.68 1.7067 -4 2.56 -6.96 2.56 c-2.16 0 -3.8733 -0.54668 -5.14 -1.64 s-1.9 -2.6133 -1.9 -4.56 c0 -1.8933 0.6 -3.36 1.8 -4.4 c1.2267 -1.0933 3.4534 -1.7866 6.68 -2.08 c2.2933 -0.24 3.7466 -0.54 4.36 -0.9 s0.92 -0.91332 0.92 -1.66 c0 -0.93332 -0.28 -1.6266 -0.84 -2.08 s-1.4933 -0.68 -2.8 -0.68 c-1.2 0 -2.1067 0.24668 -2.72 0.74 s-0.97332 1.2866 -1.08 2.38 l-5.68 0 c0.13332 -2.2667 1.0666 -3.9867 2.8 -5.16 s4.0532 -1.76 6.96 -1.76 z M97.268 34.12 c0 1.76 1.16 2.64 3.48 2.64 c3.04 -0.02668 4.5732 -1.5867 4.6 -4.68 l0 -2.2 c-0.45332 0.45332 -1.6 0.78664 -3.44 0.99996 c-1.6 0.18668 -2.7733 0.51336 -3.52 0.98004 s-1.12 1.22 -1.12 2.26 z M120.33500000000001 19.32 l4.36 14.12 l0.08 0 l4.36 -14.12 l5.64 0 l-7 20.68 l-6.32 0 l-7.08 -20.68 l5.96 0 z M147.602 18.76 c1.9467 0 3.6801 0.45328 5.2 1.36 s2.7133 2.22 3.58 3.94 s1.3 3.7 1.3 5.94 c0 0.21332 -0.01332 0.56 -0.04 1.04 l-14.92 0 c0.05332 1.6533 0.48664 2.94 1.3 3.86 s2.06 1.38 3.74 1.38 c1.04 0 1.9933 -0.26 2.86 -0.78 s1.42 -1.1533 1.66 -1.9 l5 0 c-1.4667 4.64 -4.6932 6.96 -9.68 6.96 c-1.8933 -0.02668 -3.6466 -0.44 -5.26 -1.24 s-2.9 -2.0467 -3.86 -3.74 s-1.44 -3.66 -1.44 -5.9 c0 -2.1067 0.48668 -4.0268 1.46 -5.76 s2.2666 -3.0266 3.88 -3.88 s3.3533 -1.28 5.22 -1.28 z M151.962 27.439999999999998 c-0.26668 -1.5467 -0.76 -2.6667 -1.48 -3.36 s-1.7467 -1.04 -3.08 -1.04 c-1.3867 0 -2.48 0.39332 -3.28 1.18 s-1.2667 1.86 -1.4 3.22 l9.24 0 z M173.989 18.76 c0.48 0 0.89336 0.06668 1.24 0.2 l0 5.28 c-0.61332 -0.13332 -1.2933 -0.2 -2.04 -0.2 c-3.7333 0 -5.6 2.2133 -5.6 6.64 l0 9.32 l-5.68 0 l0 -20.68 l5.4 0 l0 3.84 l0.08 0 c0.56 -1.3333 1.4467 -2.4 2.66 -3.2 s2.5266 -1.2 3.94 -1.2 z"></path></g></svg>