<svg id="Component_47_2" data-name="Component 47 – 2" xmlns="http://www.w3.org/2000/svg" width="16.998" height="16.769" viewBox="0 0 16.998 16.769">
  <g id="Group_115" data-name="Group 115" transform="translate(-288.618 -128.724)">
    <g id="Group_111" data-name="Group 111" transform="translate(288.618 128.724)">
      <g id="Group_110" data-name="Group 110">
        <path id="Path_407" data-name="Path 407" d="M305.616,139.126v6.367h-3.691v-5.94c0-1.492-.533-2.51-1.87-2.51a2.019,2.019,0,0,0-1.893,1.35,2.528,2.528,0,0,0-.122.9v6.2h-3.692s.049-10.06,0-11.1h3.692v1.573c-.008.012-.018.024-.024.037h.024v-.037a3.665,3.665,0,0,1,3.326-1.834c2.429,0,4.249,1.587,4.249,5Zm-17,6.367h3.69v-11.1h-3.69Zm0,0,3.8-14.869a1.9,1.9,0,1,1-1.9-1.9A1.9,1.9,0,0,1,292.418,130.624Z" transform="translate(-288.618 -128.724)" fill="#69efad"/>
      </g>
    </g>
  </g>
</svg>
