<svg id="Component_26_2" data-name="Component 26 – 2" xmlns="http://www.w3.org/2000/svg" xmlns:xlink="http://www.w3.org/1999/xlink" width="193.527" height="159.172" viewBox="0 0 193.527 159.172">
  <defs>
    <clipPath id="clip-path">
      <path id="Path_292" data-name="Path 292" d="M-2832.452,5224.345h193.527V5065.173h-193.527Z" transform="translate(2925 -122)" fill="none" stroke="#707070" stroke-width="1"/>
    </clipPath>
  </defs>
  <g id="Mask_Group_1" data-name="Mask Group 1" transform="translate(-92.548 -4943.173)" clip-path="url(#clip-path)">
    <g id="Group_73" data-name="Group 73" transform="translate(-19.611 4760.236)">
      <g id="Group_74" data-name="Group 74" transform="translate(121.351 199.152)">
        <g id="Group_71" data-name="Group 71" transform="translate(0)">
          <circle id="Ellipse_13" data-name="Ellipse 13" cx="88.76" cy="88.76" r="88.76" fill="none"/>
          <g id="Group_68" data-name="Group 68" transform="translate(19.337 22.507)">
            <path id="Path_259" data-name="Path 259" d="M420.416,305.084s.382-7.519,7.794-9.978c14.32-4.751,30.656,5.641,30,10.69,0,0,6.414,0,3.128,16.538-1.612,8.111-2.459,23.485-11.142,24.963S431,340.63,431,340.63Z" transform="translate(-368.705 -293.893)" fill="#4527a0"/>
            <path id="Path_260" data-name="Path 260" d="M402.108,335.649s-10.609-3.477-5.755,22.931c.865,4.707,1.271,16.92,9.648,19.635s8.7-14.176,8.7-14.176Z" transform="translate(-349.39 -325.614)" fill="#4527a0"/>
            <path id="Path_261" data-name="Path 261" d="M338.686,708.448a37.97,37.97,0,0,1-2.587,3.727,52.67,52.67,0,0,1-12.774,11.332,87.515,87.515,0,0,1-11.341,6.179c-13.028,5.972-27.878,9.609-39.954,11.788a223.2,223.2,0,0,1-23.683,3.05l-32.109-16.7-3.162-1.644-10.329-5.374V681.651s.306-43.1,47.157-49.131l43.952-.19s.059.021.164.052c.449.135,1.791.558,3.737,1.29,8,3.01,26.2,11.242,34.155,26.239,3.3,6.208,5.1,15.133,6,24.417A207.556,207.556,0,0,1,338.686,708.448Z" transform="translate(-202.747 -551.929)" fill="#fff"/>
            <path id="Path_262" data-name="Path 262" d="M442.047,553.438a40.075,40.075,0,0,1-14.029,7.856l-.03.006h-.006c-14.652,4.4-26.327-3.479-30.872-7.287.329-.126.659-.251.982-.383a16.284,16.284,0,0,0,2.461-1.233c11.58-7.1,9.472-23.539,9.472-23.539h20.561a43.909,43.909,0,0,0,.084,8.257C431.36,543.9,433.868,549.887,442.047,553.438Z" transform="translate(-350.937 -473.038)" fill="#c3c3f6"/>
            <path id="Path_263" data-name="Path 263" d="M473.45,537.114a6.792,6.792,0,0,1-5.371,3.718c-9.58.8-14.969-8.616-14.855-9.484l.5-2.491h19.645A43.9,43.9,0,0,0,473.45,537.114Z" transform="translate(-393.718 -473.038)" fill="#4527a0"/>
            <g id="Group_67" data-name="Group 67" transform="translate(45.598 12.714)">
              <path id="Path_264" data-name="Path 264" d="M565.484,437.521c0-2.684-1.9-4.86-4.235-4.86s-4.235,2.176-4.235,4.86,1.9,6.057,4.235,6.057S565.484,440.2,565.484,437.521Z" transform="translate(-518.451 -412.409)" fill="#c3c3f6"/>
              <path id="Path_267" data-name="Path 267" d="M394.688,437.521c0-2.684,1.9-4.86,4.235-4.86s4.235,2.176,4.235,4.86-1.9,6.057-4.235,6.057S394.688,440.2,394.688,437.521Z" transform="translate(-394.688 -412.409)" fill="#c3c3f6"/>
              <path id="Path_270" data-name="Path 270" d="M449.452,391.182c-3.138,3.6-7.109,5.926-11.874,5.848-4.76.078-8.736-2.244-11.874-5.848a.577.577,0,0,0-.056-.067c-5.621-7.1-6.765-17.45-5.243-29.769,1.1-8.862,9.452-12.3,14.091-13.531a11.972,11.972,0,0,1,6.163,0c4.639,1.234,13,4.669,14.091,13.531C456.277,373.7,455.122,384.078,449.452,391.182Z" transform="translate(-413.827 -347.411)" fill="#c3c3f6"/>
              <circle id="Ellipse_14" data-name="Ellipse 14" cx="1.019" cy="1.019" r="1.019" transform="translate(29.143 24.271)" fill="#4527a0"/>
              <circle id="Ellipse_15" data-name="Ellipse 15" cx="1.019" cy="1.019" r="1.019" transform="translate(15.675 24.271)" fill="#4527a0"/>
              <path id="Path_271" data-name="Path 271" d="M514.194,410.791s-2.445.1-5.656.125-4.04-.025-3.753-1.328,3.508-1.277,5.518-.826A10.851,10.851,0,0,1,514.194,410.791Z" transform="translate(-478.589 -391.974)" fill="#4527a0"/>
              <path id="Path_272" data-name="Path 272" d="M441.048,410.791s2.445.1,5.656.125,4.04-.025,3.753-1.328-3.508-1.277-5.518-.826A10.851,10.851,0,0,0,441.048,410.791Z" transform="translate(-430.035 -391.974)" fill="#4527a0"/>
              <g id="Group_64" data-name="Group 64" transform="translate(21.97 27)">
                <path id="Path_273" data-name="Path 273" d="M488.265,466.507a1.406,1.406,0,0,1-.928-.245.545.545,0,0,1-.16-.509c.148-.936.692-4.651.7-4.688l.3.043c-.005.037-.55,3.754-.7,4.692a.247.247,0,0,0,.068.243c.278.26,1.249.161,1.8.036l.067.292A5.7,5.7,0,0,1,488.265,466.507Z" transform="translate(-487.168 -461.065)" fill="#4527a0"/>
              </g>
              <g id="Group_65" data-name="Group 65" transform="matrix(0.995, 0.105, -0.105, 0.995, 22.093, 34.215)">
                <path id="Path_274" data-name="Path 274" d="M492.2,483.221a5.442,5.442,0,0,1-1.086-.1.167.167,0,0,1,.075-.326,5.184,5.184,0,0,0,5.631-2.6.168.168,0,0,1,.294.161A5.374,5.374,0,0,1,492.2,483.221Z" transform="translate(-490.985 -480.115)" fill="#4527a0"/>
              </g>
              <g id="Group_66" data-name="Group 66" transform="matrix(0.995, 0.105, -0.105, 0.995, 25.088, 37.739)">
                <path id="Path_275" data-name="Path 275" d="M505.243,494.17a.167.167,0,0,1-.032-.332,2.25,2.25,0,0,0,.713-.267.167.167,0,1,1,.17.288,2.577,2.577,0,0,1-.819.307A.145.145,0,0,1,505.243,494.17Z" transform="translate(-505.076 -493.549)" fill="#4527a0"/>
              </g>
            </g>
            <path id="Path_276" data-name="Path 276" d="M562.274,383.506l1.119,16.71,1.205-5.633S568.187,387.1,562.274,383.506Z" transform="translate(-476.863 -362.217)" fill="#4527a0"/>
            <path id="Path_277" data-name="Path 277" d="M416.131,375.279l-1.577,18.665-.748-5.633S410.218,380.826,416.131,375.279Z" transform="translate(-362.844 -355.944)" fill="#4527a0"/>
            <path id="Path_278" data-name="Path 278" d="M439.8,595.01s-6.436,10.477-22.469,10.315-23.167-9.89-23.167-9.89a41.72,41.72,0,0,0,4.376-3.637,27.926,27.926,0,0,0,6.262-8.217s.573-.653,4.48.406,8.267,2.264,14.249,1.221,6.352-1.221,6.761-.9c.337.271,2.6,5.162,6.716,8.716A17.149,17.149,0,0,0,439.8,595.01Z" transform="translate(-348.692 -514.609)" fill="#fff"/>
            <path id="Path_279" data-name="Path 279" d="M443.406,717.571,428.05,730.4l-8.011-5.535-5.4-3.734-2.053-1.418s.311-2.97,2.245-12.313c.556-2.689,1.247-5.906,2.1-9.735q.688-3.079,1.525-6.7c.7-3.008,1.39-6.3,2.064-9.762.6-3.05,1.185-6.227,1.751-9.436.929-5.267,1.805-10.626,2.594-15.677.5-3.2.962-6.276,1.383-9.13.439-2.989.831-5.73,1.166-8.11.793-5.666,1.257-9.279,1.257-9.279H433.9l.413,3.825.71,6.571.793,7.357,1.357,12.56.793,7.353,1.357,12.567.793,7.346,1.359,12.574.791,7.338Z" transform="translate(-362.736 -549.825)" fill="#4527a0"/>
            <path id="Path_280" data-name="Path 280" d="M481.924,633.395c-1.886,1.547-4.416,3.58-6.9,5.454.794-5.666,1.257-9.279,1.257-9.279h5.226Z" transform="translate(-410.343 -549.825)" fill="#4527a0"/>
          </g>
          <path id="Path_281" data-name="Path 281" d="M467.89,603.315s5.164,4.3,6.114,4.454,6.266-5.068,6.266-5.068L477.08,597H470.2Z" transform="translate(-386.193 -502.485)" fill="#69efad"/>
          <path id="Path_282" data-name="Path 282" d="M451.056,593.029c-5.35,2.749-11.667,5.88-12.56,5.8-1.582-.143-7.284-11.023-7.284-11.023s-5.855,11.043-7.92,11.024c-2.247-.019-6.679-4.128-10.705-7.031a27.925,27.925,0,0,0,6.262-8.217s.573-.653,4.481.406,8.267,2.264,14.249,1.221,6.352-1.221,6.761-.9C444.677,584.583,446.944,589.475,451.056,593.029Z" transform="translate(-343.4 -492.102)" fill="#4527a0"/>
          <path id="Path_283" data-name="Path 283" d="M246.227,804.157l18.1-69.557-14.943,71.2Z" transform="translate(-216.561 -607.396)" fill="#e5e5e5"/>
          <path id="Path_284" data-name="Path 284" d="M650.254,817.954c3.834-34.475-3.837-69.854-3.837-69.854L661.6,811.775A87.511,87.511,0,0,1,650.254,817.954Z" transform="translate(-521.68 -617.689)" fill="#e5e5e5"/>
          <g id="Group_69" data-name="Group 69" transform="translate(71.24 112.648)">
            <path id="Path_285" data-name="Path 285" d="M475.246,680.687,464.3,689.453c.5-3.2,1.06-7,1.481-9.857l8.624-6.76Z" transform="translate(-454.065 -673.33)" fill="#69efad"/>
            <path id="Path_286" data-name="Path 286" d="M463.451,764.523l-17.444,13.966c.6-3.05,1.185-6.227,1.751-9.436l14.9-11.883Z" transform="translate(-440.12 -737.253)" fill="#69efad"/>
            <path id="Path_287" data-name="Path 287" d="M447.326,848.365l-25.289,20.248c.556-2.689,1.247-5.906,2.1-9.735l22.391-17.858Z" transform="translate(-421.844 -801.183)" fill="#69efad"/>
            <path id="Path_288" data-name="Path 288" d="M448.858,932.208l-22.231,17.8-5.4-3.734,26.84-21.4Z" transform="translate(-421.227 -865.113)" fill="#69efad"/>
          </g>
          <path id="Path_291" data-name="Path 291" d="M450.272,349.659c-21.658,3.2-28.627-9.4-28.627-9.4-1.663,9.621-7.265,12.116-7.265,12.116a45.273,45.273,0,0,1-1.879-9.619c-.171-4.214,7.956-11.524,17.737-12.593s18.727,6.414,18.727,6.414l1.136,11.79c-10.163,2.345-20.775-3.594-20.775-3.594,7.429,5.146,17.518,4.773,20.861,4.478Z" transform="translate(-343.332 -298.961)" fill="#4527a0"/>
        </g>
      </g>
    </g>
  </g>
</svg>
